<svg id="レイヤー_1" data-name="レイヤー 1" xmlns="http://www.w3.org/2000/svg" viewBox="0 0 432.55972 162.30499"><defs><style>.cls-1{fill:#00aeef;}</style></defs><title>アートボード 1</title><path class="cls-1" d="M214.4938,43.08841c0,4.061-.174,6.729-1.044,8.874-1.159,2.958-4.291,5.278-9.163,5.278a22.40225,22.40225,0,0,1-7.366-1.102l1.16-4.466a16.88876,16.88876,0,0,0,5.51.928,5.21139,5.21139,0,0,0,4.756-2.436c.812-1.276,1.044-3.712,1.044-6.901v-21.982l-6.497-.464v-3.48h16.995v3.48l-5.395.464Z"/><polygon class="cls-1" points="226.791 56.544 226.791 53.065 232.765 52.6 232.765 21.281 226.791 20.816 226.791 17.337 243.494 17.337 243.494 20.816 237.868 21.281 237.868 33.982 257.24 33.982 257.24 21.281 251.614 20.816 251.614 17.337 268.318 17.337 268.318 20.816 262.344 21.281 262.344 52.6 268.318 53.065 268.318 56.544 251.614 56.544 251.614 53.065 257.24 52.6 257.24 38.565 237.868 38.565 237.868 52.6 243.494 53.065 243.494 56.544 226.791 56.544"/><path class="cls-1" d="M291.22769,52.02094a32.43669,32.43669,0,0,0,9.048-1.219c6.206-1.914,8.468-7.249,8.468-14.847,0-5.568-1.798-9.802-5.742-12.064-2.378-1.391-6.438-2.03-10.961-2.03h-4.177v30.16Zm-14.441,1.044,5.974-.465v-31.318l-5.974-.465v-3.48h13.398c5.103,0,9.917.407,12.643,1.218,6.786,2.088,11.484,6.903,11.484,17.11,0,9.57-3.074,16.471-11.542,19.313-4.234,1.45-9.337,1.566-13.977,1.566h-12.006Z"/><path class="cls-1" d="M344.58731,24.99231c0-2.783-1.624-4.523-4.988-4.523-4.234,0-5.567,2.726-5.567,5.278a11.31627,11.31627,0,0,0,2.551,6.495c5.27905-2.145,8.004-4.466,8.004-7.25m-16.878,20.126c0,3.191,2.262,7.424,9.164,7.424a12.97257,12.97257,0,0,0,8.468-2.899,78.58153,78.58153,0,0,1-10.962-12.122c-4.582,1.971-6.67,4.349-6.67,7.597m21.054,7.598a17.21081,17.21081,0,0,1-12.122,4.582c-8.004,0-13.978-4.35-13.978-11.773,0-5.916,3.248-9.164,9.454-11.775-1.914-2.667-2.9-4.813-2.9-8.003,0-4.93,3.364-9.222,10.382-9.222,5.452,0,9.338,2.668,9.338,8.236,0,5.277-4.582,8.235-9.976,10.788,2.668,3.363,6.09,7.714,9.918,10.729a13.75566,13.75566,0,0,0,3.363-6.669l-4.059-.233v-3.537h12.702v3.537l-3.712.406a22.50377,22.50377,0,0,1-5.046,9.512,37.76551,37.76551,0,0,0,8.816,4.235l-1.334,4.175a30.65482,30.65482,0,0,1-10.84595-4.988"/><path class="cls-1" d="M385.88339,57.4722c-9.802,0-17.052-7.308-17.052-19.43,0-13.745,7.01794-21.633,19.256-21.633a45.44731,45.44731,0,0,1,11.426,1.392c.29,1.334.348,3.712.348,10.672h-3.886l-.812-6.67a25.80661,25.80661,0,0,0-7.076-.811c-7.424,0-13.861,4.697-13.861,16.76,0,9.281,5.335,14.907,12.643,14.907a18.374,18.374,0,0,0,12.18-4.815l2.319,3.364a22.17952,22.17952,0,0,1-15.485,6.264"/><path class="cls-1" d="M204.06512,83.74609a10.39174,10.39174,0,0,1-.45,3.824,3.95026,3.95026,0,0,1-3.95,2.275,9.64351,9.64351,0,0,1-3.173-.475l.5-1.925a7.269,7.269,0,0,0,2.374.401,2.244,2.244,0,0,0,2.049-1.05,6.28994,6.28994,0,0,0,.45-2.975v-9.473l-2.799-.2v-1.499h7.323v1.499l-2.324.2Z"/><path class="cls-1" d="M216.31509,83.74652a18.01523,18.01523,0,0,0-4.324.549,1.81641,1.81641,0,0,0-1.35,1.75,1.9802,1.9802,0,0,0,2.249,2.025,4.86335,4.86335,0,0,0,3.425-1.4Zm4.374,5.523a21.40219,21.40219,0,0,1-4.149.45l-.151-1.624a5.41849,5.41849,0,0,1-4.049,1.749,3.5991,3.5991,0,0,1-3.848-3.799,3.098,3.098,0,0,1,2.349-3.074,22.05393,22.05393,0,0,1,5.449-.7v-.825a3.99824,3.99824,0,0,0-.35-2.149c-.325-.426-.8-.625-1.95-.625a16.17979,16.17979,0,0,0-4.224.75l-.325-1.6a17.03428,17.03428,0,0,1,5.274-1.05c1.425,0,2.575.35,3.075,1.225a7.11724,7.11724,0,0,1,.524,3.499v6.399h2.375Z"/><path class="cls-1" d="M229.18982,87.99539c2.449,0,3.674-1.725,3.674-4.824,0-2.649-.675-4.425-2.774-4.425a7.24654,7.24654,0,0,0-3.775,1.375v7.274a6.34186,6.34186,0,0,0,2.875.6m-7.198,7.698v-1.5l2.274-.199v-15.048h-2.424v-1.424a17.8833,17.8833,0,0,1,4.399-.65l.074,1.85a7.8563,7.8563,0,0,1,4.674-1.925c2.625,0,4.1,2.024,4.1,6.074,0,4.824-2.35,6.898-5.825,6.898a8.522,8.522,0,0,1-2.949-.449v4.674l2.75.199v1.5Z"/><path class="cls-1" d="M246.08951,83.74652a18.01523,18.01523,0,0,0-4.324.549,1.81641,1.81641,0,0,0-1.35,1.75,1.9802,1.9802,0,0,0,2.249,2.025,4.86335,4.86335,0,0,0,3.425-1.4Zm4.374,5.523a21.40219,21.40219,0,0,1-4.149.45l-.151-1.624a5.41849,5.41849,0,0,1-4.049,1.749,3.59909,3.59909,0,0,1-3.848-3.799,3.098,3.098,0,0,1,2.349-3.074,22.05393,22.05393,0,0,1,5.449-.7v-.825a3.99824,3.99824,0,0,0-.35-2.149c-.325-.426-.8-.625-1.95-.625a16.17979,16.17979,0,0,0-4.224.75l-.325-1.6a17.03428,17.03428,0,0,1,5.274-1.05c1.425,0,2.575.35,3.075,1.225a7.11724,7.11724,0,0,1,.524,3.499v6.399h2.375Z"/><path class="cls-1" d="M252.26721,89.54489v-1.475l2.274-.2v-8.898h-2.424v-1.425a18.98641,18.98641,0,0,1,4.399-.674l.074,2.074a8.65072,8.65072,0,0,1,4.949-2.1c1.825,0,2.575.825,2.799,2.275a23.6182,23.6182,0,0,1,.101,3v5.748l2.424.2v1.475h-4.474v-6.898a13.619,13.619,0,0,0-.2-2.825c-.15-.675-.675-1.025-1.574-1.025a6.95135,6.95135,0,0,0-4.025,1.499v7.574l2.275.2v1.475Z"/><polygon class="cls-1" points="274.866 89.545 274.866 88.045 277.44 87.846 277.44 74.348 274.866 74.148 274.866 72.649 282.064 72.649 282.064 74.148 279.639 74.348 279.639 79.822 287.987 79.822 287.987 74.348 285.563 74.148 285.563 72.649 292.762 72.649 292.762 74.148 290.187 74.348 290.187 87.846 292.762 88.045 292.762 89.545 285.563 89.545 285.563 88.045 287.987 87.846 287.987 81.797 279.639 81.797 279.639 87.846 282.064 88.045 282.064 89.545 274.866 89.545"/><path class="cls-1" d="M302.9147,83.74652a18.01523,18.01523,0,0,0-4.324.549,1.81641,1.81641,0,0,0-1.35,1.75,1.9802,1.9802,0,0,0,2.249,2.025,4.86335,4.86335,0,0,0,3.425-1.4Zm4.374,5.523a21.40219,21.40219,0,0,1-4.149.45l-.151-1.624a5.41849,5.41849,0,0,1-4.049,1.749,3.59909,3.59909,0,0,1-3.848-3.799,3.098,3.098,0,0,1,2.349-3.074,22.05393,22.05393,0,0,1,5.449-.7v-.825a3.99824,3.99824,0,0,0-.35-2.149c-.325-.426-.8-.625-1.95-.625a16.17979,16.17979,0,0,0-4.224.75l-.325-1.6a17.03428,17.03428,0,0,1,5.274-1.05c1.425,0,2.575.35,3.075,1.225a7.11724,7.11724,0,0,1,.524,3.499v6.399h2.375Z"/><path class="cls-1" d="M312.01535,74.92291a1.28617,1.28617,0,0,1-1.35-1.45,1.32634,1.32634,0,0,1,1.375-1.474c.775,0,1.374.375,1.374,1.474a1.30113,1.30113,0,0,1-1.399,1.45m-2.924,14.622v-1.475l2.274-.2v-8.898h-2.424v-1.45a19.14248,19.14248,0,0,1,4.473-.649v10.997l2.275.2v1.475Z"/><path class="cls-1" d="M317.566,89.54489v-1.475l2.275-.2v-8.898h-2.425v-1.425a18.06186,18.06186,0,0,1,4.348-.674l.101,2.349a4.99894,4.99894,0,0,1,4.049-2.375,7.10371,7.10371,0,0,1,.774.051v2.074c-.199-.025-.774-.075-.974-.075a5.30463,5.30463,0,0,0-3.825,1.75v7.199l2.725.224v1.475Z"/><path class="cls-1" d="M203.21481,117.59592a13.99273,13.99273,0,0,0,3.899-.526c2.675-.824,3.649-3.124,3.649-6.398,0-2.399-.775-4.224-2.474-5.198a10.12288,10.12288,0,0,0-4.724-.875h-1.8v12.997Zm-6.223.449,2.574-.199v-13.497l-2.574-.2v-1.5h5.773a22.04014,22.04014,0,0,1,5.449.525c2.924.899,4.949,2.975,4.949,7.373,0,4.124-1.325,7.099-4.974,8.323a19.23679,19.23679,0,0,1-6.024.675h-5.173Z"/><path class="cls-1" d="M222.5397,108.52292c-2.574,0-3.799,1.924-3.799,4.598,0,3.749,1.475,5.049,3.699,5.049,2.075,0,3.674-1.399,3.674-4.748,0-2.875-.65-4.899-3.574-4.899m-.25,11.397c-3.475,0-5.724-2.374-5.724-6.398,0-4.4,2.249-6.748,6.124-6.748,3.799,0,5.623,2.173,5.623,6.273,0,4.374-2.224,6.873-6.023,6.873"/><path class="cls-1" d="M231.11682,119.54489v-1.475l2.274-.2v-8.897h-2.424v-1.425a18.93439,18.93439,0,0,1,4.399-.675l.074,2.074a8.65571,8.65571,0,0,1,4.949-2.099c1.825,0,2.575.825,2.799,2.274a23.635,23.635,0,0,1,.101,3v5.748l2.424.2v1.475h-4.474v-6.898a13.62566,13.62566,0,0,0-.2-2.825c-.15-.674-.675-1.024-1.574-1.024a6.95135,6.95135,0,0,0-4.025,1.499v7.573l2.275.2v1.475Z"/><path class="cls-1" d="M255.7897,113.74652a18.01523,18.01523,0,0,0-4.324.549,1.81641,1.81641,0,0,0-1.35,1.75,1.9802,1.9802,0,0,0,2.249,2.025,4.86335,4.86335,0,0,0,3.425-1.4Zm4.374,5.523a21.40219,21.40219,0,0,1-4.149.45l-.151-1.624a5.41849,5.41849,0,0,1-4.049,1.749,3.59909,3.59909,0,0,1-3.848-3.799,3.098,3.098,0,0,1,2.349-3.074,22.05393,22.05393,0,0,1,5.449-.7v-.824a4.00246,4.00246,0,0,0-.35-2.15c-.325-.425-.8-.625-1.95-.625a16.17979,16.17979,0,0,0-4.224.75l-.325-1.599a17.03428,17.03428,0,0,1,5.274-1.05c1.425,0,2.575.35,3.075,1.225a7.11244,7.11244,0,0,1,.524,3.499v6.398h2.375Z"/><path class="cls-1" d="M266.71451,119.74512a2.83687,2.83687,0,0,1-2.449-1.15,6.64449,6.64449,0,0,1-.6-3.299v-6.324h-2.449v-1.625a17.67323,17.67323,0,0,1,2.475-.174c0-.25.024-1.25.099-3.124l1.975-.151v3.275h3.299v1.799h-3.299v5.924a4.3591,4.3591,0,0,0,.375,2.299,1.60332,1.60332,0,0,0,1.449.625,8.89692,8.89692,0,0,0,1.85-.224l.299,1.649a9.10592,9.10592,0,0,1-3.024.5"/><path class="cls-1" d="M274.2146,104.92392a1.28619,1.28619,0,0,1-1.35-1.45,1.32666,1.32666,0,0,1,1.375-1.475c.775,0,1.374.375,1.374,1.475a1.30112,1.30112,0,0,1-1.399,1.45m-2.924,14.621v-1.475l2.275-.2v-8.897h-2.425v-1.45a19.15328,19.15328,0,0,1,4.473-.65v10.997l2.275.2v1.475Z"/><path class="cls-1" d="M286.26431,108.52292c-2.574,0-3.799,1.924-3.799,4.598,0,3.749,1.475,5.049,3.699,5.049,2.075,0,3.674-1.399,3.674-4.748,0-2.875-.65-4.899-3.574-4.899m-.25,11.397c-3.475,0-5.724-2.374-5.724-6.398,0-4.4,2.249-6.748,6.124-6.748,3.799,0,5.623,2.173,5.623,6.273,0,4.374-2.224,6.873-6.023,6.873"/><path class="cls-1" d="M294.84052,119.54489v-1.475l2.274-.2v-8.897h-2.424v-1.425a18.93418,18.93418,0,0,1,4.398-.675l.075,2.074a8.65571,8.65571,0,0,1,4.949-2.099c1.825,0,2.575.825,2.799,2.274a23.635,23.635,0,0,1,.101,3v5.748l2.424.2v1.475h-4.474v-6.898a13.62566,13.62566,0,0,0-.2-2.825c-.15-.674-.675-1.024-1.574-1.024a6.95135,6.95135,0,0,0-4.025,1.499v7.573l2.275.2v1.475Z"/><path class="cls-1" d="M327.61166,105.94852c0-1.199-.699-1.949-2.149-1.949a2.141,2.141,0,0,0-2.4,2.274,4.88485,4.88485,0,0,0,1.1,2.799c2.274-.925,3.449-1.925,3.449-3.124m-7.273,8.673c0,1.375.975,3.199,3.949,3.199a5.58642,5.58642,0,0,0,3.649-1.25,33.80936,33.80936,0,0,1-4.723-5.224c-1.975.85-2.875,1.875-2.875,3.275m9.07306,3.274a7.4194,7.4194,0,0,1-5.22406,1.975c-3.449,0-6.02295-1.875-6.02295-5.075,0-2.548,1.399-3.949,4.074-5.073a5.42429,5.42429,0,0,1-1.25-3.449c0-2.125,1.449-3.975,4.474-3.975,2.349,0,4.024,1.151,4.024,3.55,0,2.275-1.974,3.549-4.299,4.649a28.28717,28.28717,0,0,0,4.274,4.624,5.93623,5.93623,0,0,0,1.45-2.874l-1.75-.101v-1.524h5.474v1.524l-1.6.175a9.68733,9.68733,0,0,1-2.175,4.099,16.26,16.26,0,0,0,3.8,1.825l-.575,1.799a13.20071,13.20071,0,0,1-4.674-2.149"/><path class="cls-1" d="M350.8873,119.94431c-4.22406,0-7.348-3.148-7.348-8.372,0-5.924,3.025-9.323,8.298-9.323a19.58658,19.58658,0,0,1,4.924.599,29.36337,29.36337,0,0,1,.149,4.6h-1.673l-.351-2.875a11.09607,11.09607,0,0,0-3.049-.35c-3.199,0-5.973,2.025-5.973,7.224,0,3.999,2.299,6.423,5.448,6.423a7.92057,7.92057,0,0,0,5.249-2.074l1,1.449a9.56165,9.56165,0,0,1-6.674,2.699"/><path class="cls-1" d="M359.53873,119.54489v-1.475l2.225-.2v-14.671h-2.425v-1.425a16.83454,16.83454,0,0,1,4.449-.7v7.873a9.00607,9.00607,0,0,1,4.949-2.099c1.825,0,2.624.825,2.825,2.274a23.65711,23.65711,0,0,1,.099,2.975v5.773l2.425.2v1.475h-4.474v-6.898a14.181,14.181,0,0,0-.175-2.825c-.15-.674-.7-1.024-1.625-1.024a7.00086,7.00086,0,0,0-3.999,1.524v7.548l2.275.2v1.475Z"/><path class="cls-1" d="M384.18716,113.74652a18.0155,18.0155,0,0,0-4.324.549,1.81641,1.81641,0,0,0-1.35,1.75,1.98021,1.98021,0,0,0,2.249,2.025,4.86335,4.86335,0,0,0,3.425-1.4Zm4.374,5.523a21.4133,21.4133,0,0,1-4.15.45l-.15-1.624a5.41844,5.41844,0,0,1-4.049,1.749,3.59907,3.59907,0,0,1-3.848-3.799,3.098,3.098,0,0,1,2.349-3.074,22.05168,22.05168,0,0,1,5.448-.7v-.824a4.005,4.005,0,0,0-.349-2.15c-.325-.425-.8-.625-1.95-.625a16.1802,16.1802,0,0,0-4.224.75l-.325-1.599a17.03445,17.03445,0,0,1,5.274-1.05c1.425,0,2.574.35,3.074,1.225a7.0975,7.0975,0,0,1,.525,3.499v6.398h2.375Z"/><path class="cls-1" d="M390.36392,119.54489v-1.475l2.274-.2v-8.897h-2.424v-1.425a18.05746,18.05746,0,0,1,4.348-.675l.101,2.35a4.99894,4.99894,0,0,1,4.049-2.375,6.86718,6.86718,0,0,1,.774.051v2.074c-.199-.026-.774-.075-.974-.075a5.30463,5.30463,0,0,0-3.825,1.75v7.198l2.725.224v1.475Z"/><path class="cls-1" d="M404.41287,104.92392a1.28617,1.28617,0,0,1-1.35-1.45,1.32666,1.32666,0,0,1,1.375-1.475c.775,0,1.374.375,1.374,1.475a1.30113,1.30113,0,0,1-1.399,1.45m-2.924,14.621v-1.475l2.274-.2v-8.897h-2.424v-1.45a19.14549,19.14549,0,0,1,4.473-.65v10.997l2.275.2v1.475Z"/><path class="cls-1" d="M414.71152,119.74512a2.83692,2.83692,0,0,1-2.449-1.15,6.64455,6.64455,0,0,1-.6-3.299v-6.324h-2.449v-1.625a17.67364,17.67364,0,0,1,2.475-.174c0-.25.024-1.25.099-3.124l1.975-.151v3.275h3.299v1.799h-3.299v5.924a4.3591,4.3591,0,0,0,.375,2.299,1.60334,1.60334,0,0,0,1.449.625,8.89716,8.89716,0,0,0,1.85-.224l.3,1.649a9.1165,9.1165,0,0,1-3.025.5"/><path class="cls-1" d="M419.66373,124.19341c2.674-.425,3.974-1.999,5.073-4.648h-.449l-4.3-10.698-1.674-.2v-1.475h6.123v1.475l-2.224.175c2.125,5.024,2.75,6.823,3.474,8.798.675-1.999,1.3-3.924,3.025-8.798l-2.225-.175v-1.475h6.073v1.475l-1.699.2-3.574,9.848c-1.8,4.898-3.8,6.773-7.073,7.348Z"/><path class="cls-1" d="M196.69492,145.54491v-.96l1.648-.129v-8.642l-1.648-.129v-.96h3.457c3.97,6.162,4.402,6.867,5.154,8.355-.047-1.697-.047-3.489-.047-7.266l-1.553-.113v-.976h4.498v.96l-1.537.129v9.731h-1.569c-3.841-6.307-4.674-7.683-5.394-8.899.032,1.36.049,2.64.049,7.81l1.632.129v.96Z"/><path class="cls-1" d="M213.94379,138.4861c-1.648,0-2.432,1.233-2.432,2.946,0,2.4.944,3.233,2.369,3.233,1.328,0,2.352-.897,2.352-3.042,0-1.841-.416-3.137-2.289-3.137m-.16,7.299c-2.225,0-3.665-1.52-3.665-4.098,0-2.817,1.44-4.322,3.922-4.322,2.433,0,3.601,1.393,3.601,4.018,0,2.801-1.424,4.402-3.858,4.402"/><path class="cls-1" d="M219.75061,145.54491v-.944l1.456-.128v-5.699h-1.552v-.912a12.13672,12.13672,0,0,1,2.817-.432l.048,1.328a5.54351,5.54351,0,0,1,3.169-1.344,1.5543,1.5543,0,0,1,1.794,1.456,15.53513,15.53513,0,0,1,.063,1.921v3.682l1.553.128v.944h-2.866v-4.418a8.65762,8.65762,0,0,0-.128-1.809c-.095-.432-.432-.656-1.008-.656a4.45224,4.45224,0,0,0-2.577.96v4.851l1.457.128v.944Z"/><path class="cls-1" d="M234.8411,144.55241c1.569,0,2.353-1.104,2.353-3.09,0-1.696-.433-2.833-1.776-2.833a4.62507,4.62507,0,0,0-2.417.881v4.658a4.056,4.056,0,0,0,1.84.384m-4.61,4.93v-.96l1.457-.128v-9.637h-1.553v-.912a11.42791,11.42791,0,0,1,2.817-.416l.049,1.185a5.02063,5.02063,0,0,1,2.993-1.233c1.68,0,2.625,1.296,2.625,3.89,0,3.089-1.505,4.418-3.73,4.418a5.41286,5.41286,0,0,1-1.888-.289v2.994l1.76.128v.96Z"/><path class="cls-1" d="M240.7272,145.54491v-.944l1.456-.128v-5.699h-1.552v-.912a11.5767,11.5767,0,0,1,2.784-.432l.065,1.505a3.20015,3.20015,0,0,1,2.593-1.521,4.84459,4.84459,0,0,1,.496.031v1.329c-.128-.016-.496-.047-.624-.047a3.39336,3.39336,0,0,0-2.449,1.12v4.609l1.745.145v.944Z"/><path class="cls-1" d="M251.976,138.4861c-1.648,0-2.432,1.233-2.432,2.946,0,2.4.944,3.233,2.369,3.233,1.328,0,2.352-.897,2.352-3.042,0-1.841-.416-3.137-2.289-3.137m-.159,7.299c-2.226,0-3.666-1.52-3.666-4.098,0-2.817,1.44-4.322,3.922-4.322,2.432,0,3.601,1.393,3.601,4.018,0,2.801-1.424,4.402-3.857,4.402"/><path class="cls-1" d="M265.1778,136.18091a.82382.82382,0,0,1-.865-.928.853.853,0,0,1,.897-.944c.48,0,.864.24.864.944a.83316.83316,0,0,1-.896.928m-7.395,9.364v-.944l1.456-.128v-5.699h-1.504v-1.024a9.23967,9.23967,0,0,1,1.504-.128v-.768a3.27,3.27,0,0,1,.593-2.322,2.69232,2.69232,0,0,1,2.049-.767,9.18754,9.18754,0,0,1,1.648.176l-.143,1.072a8.49553,8.49553,0,0,0-1.249-.113,1.50451,1.50451,0,0,0-1.265.481,2.61516,2.61516,0,0,0-.32,1.505v.736h5.522v6.851l1.473.128v.944h-4.241v-.944l1.456-.128v-5.699h-4.21v5.699l1.777.128v.944Z"/><path class="cls-1" d="M272.08752,145.67281a1.81687,1.81687,0,0,1-1.568-.736,4.25569,4.25569,0,0,1-.385-2.113v-4.049h-1.569v-1.041a11.20378,11.20378,0,0,1,1.585-.112c0-.16.016-.801.064-2.001l1.265-.096v2.097h2.113v1.153h-2.113v3.793a2.79018,2.79018,0,0,0,.24,1.472,1.027,1.027,0,0,0,.929.401,5.66357,5.66357,0,0,0,1.184-.144l.191,1.056a5.8303,5.8303,0,0,1-1.936.32"/><path class="cls-1" d="M284.95151,135.74881c-2.272,0-3.52,1.585-3.52,4.306,0,3.185,1.488,4.45,3.505,4.45,2.064,0,3.425-1.473,3.425-4.402,0-2.561-.816-4.354-3.41-4.354m-.111,10.052c-3.106,0-4.898-2.064-4.898-5.474,0-3.826,1.825-5.858,5.106-5.858,3.153,0,4.834,1.856,4.834,5.362,0,3.793-1.889,5.97-5.042,5.97"/><path class="cls-1" d="M292.03772,145.54491v-.944l1.456-.128v-5.699h-1.552v-.912a11.5767,11.5767,0,0,1,2.784-.432l.065,1.505a3.20015,3.20015,0,0,1,2.593-1.521,4.84459,4.84459,0,0,1,.496.031v1.329c-.128-.016-.496-.047-.624-.047a3.39336,3.39336,0,0,0-2.449,1.12v4.609l1.745.145v.944Z"/><path class="cls-1" d="M302.6796,138.42151a1.69993,1.69993,0,0,0-1.761,1.826,1.76105,1.76105,0,0,0,3.522.031,1.66905,1.66905,0,0,0-1.761-1.857m-2.337,8.82c0,.896,1.009,1.344,2.401,1.344,1.681,0,2.497-.799,2.497-1.52,0-.736-.352-1.185-1.745-1.297l-1.761-.143c-1.024.511-1.392,1.12-1.392,1.616m.576-3.553c0,.272.08.544.929.64l2.593.304c1.584.192,2.193.928,2.193,2.129,0,1.761-1.601,2.929-4.098,2.929-2.433,0-3.49-.96-3.49-2.177,0-.768.465-1.488,1.793-2.113a1.19131,1.19131,0,0,1-1.072-1.248c0-.433.24-.912.944-1.616a2.53982,2.53982,0,0,1-1.152-2.258,2.86074,2.86074,0,0,1,3.169-2.913,3.30422,3.30422,0,0,1,1.569.32h2.433v1.057h-1.521a2.31673,2.31673,0,0,1,.496,1.52c0,1.825-1.264,2.785-3.089,2.785a3.55468,3.55468,0,0,1-1.169-.175c-.448.368-.528.624-.528.816"/><path class="cls-1" d="M313.30411,141.8311a11.597,11.597,0,0,0-2.769.352,1.16372,1.16372,0,0,0-.86505,1.121,1.26836,1.26836,0,0,0,1.441,1.296,3.11676,3.11676,0,0,0,2.193-.896Zm2.801,3.538a13.75658,13.75658,0,0,1-2.657.288l-.096-1.041a3.46951,3.46951,0,0,1-2.594,1.121,2.30566,2.30566,0,0,1-2.465-2.433,1.98478,1.98478,0,0,1,1.505-1.969,14.13562,14.13562,0,0,1,3.49-.448v-.529a2.55723,2.55723,0,0,0-.224-1.376c-.208-.272-.513-.4-1.249-.4a10.37214,10.37214,0,0,0-2.705.48l-.20795-1.024a10.90158,10.90158,0,0,1,3.378-.673,2.13936,2.13936,0,0,1,1.969.785,4.56371,4.56371,0,0,1,.335,2.24v4.098h1.52106Z"/><path class="cls-1" d="M317.57394,145.54491v-.944l1.456-.128v-5.699h-1.553v-.912a12.14537,12.14537,0,0,1,2.818-.432l.047,1.328a5.54892,5.54892,0,0,1,3.17-1.344,1.55337,1.55337,0,0,1,1.793,1.456,15.28486,15.28486,0,0,1,.064,1.921v3.682l1.553.128v.944h-2.866v-4.418a8.65482,8.65482,0,0,0-.12805-1.809c-.095-.432-.43195-.656-1.008-.656a4.45709,4.45709,0,0,0-2.578.96v4.851l1.457.128v.944Z"/><path class="cls-1" d="M330.24667,136.18091a.82336.82336,0,0,1-.865-.928.84974.84974,0,0,1,.881-.944c.496,0,.879.24.879.944a.83243.83243,0,0,1-.895.928m-1.873,9.364v-.944l1.456-.128v-5.699h-1.552v-.928a12.2703,12.2703,0,0,1,2.864-.416v7.043l1.457.128v.944Z"/><path class="cls-1" d="M334.10123,145.54491v-.944c3.282-4.082,4.002-4.962,4.78595-5.923h-3.377l-.24005,1.553h-.944a13.8237,13.8237,0,0,1,.143-2.609h6.163v.976c-3.313,4.05-4.065,4.898-4.85,5.875h3.889l.225-1.681h.96a20.67236,20.67236,0,0,1-.09595,2.753Z"/><path class="cls-1" d="M347.92807,141.8311a11.58984,11.58984,0,0,0-2.769.352,1.16372,1.16372,0,0,0-.86505,1.121,1.26791,1.26791,0,0,0,1.441,1.296,3.11676,3.11676,0,0,0,2.193-.896Zm2.801,3.538a13.75658,13.75658,0,0,1-2.657.288l-.096-1.041a3.46951,3.46951,0,0,1-2.594,1.121,2.30566,2.30566,0,0,1-2.465-2.433,1.98478,1.98478,0,0,1,1.505-1.969,14.14209,14.14209,0,0,1,3.49-.448v-.529a2.55723,2.55723,0,0,0-.224-1.376c-.208-.272-.513-.4-1.249-.4a10.36554,10.36554,0,0,0-2.705.48l-.20795-1.024a10.90158,10.90158,0,0,1,3.378-.673,2.13936,2.13936,0,0,1,1.969.785,4.56371,4.56371,0,0,1,.335,2.24v4.098h1.52106Z"/><path class="cls-1" d="M355.23892,145.67281a1.81693,1.81693,0,0,1-1.56805-.736,4.25575,4.25575,0,0,1-.38495-2.113v-4.049h-1.56805v-1.041a11.19468,11.19468,0,0,1,1.585-.112c0-.16.015-.801.063-2.001l1.265-.096v2.097h2.113v1.153h-2.113v3.793a2.7905,2.7905,0,0,0,.24,1.472,1.02633,1.02633,0,0,0,.928.401,5.66484,5.66484,0,0,0,1.185-.144l.192,1.056a5.841,5.841,0,0,1-1.937.32"/><path class="cls-1" d="M360.358,136.18091a.82336.82336,0,0,1-.865-.928.84974.84974,0,0,1,.881-.944c.496,0,.879.24.879.944a.83243.83243,0,0,1-.895.928m-1.873,9.364v-.944l1.456-.128v-5.699h-1.552v-.928a12.2703,12.2703,0,0,1,2.864-.416v7.043l1.458.128v.944Z"/><path class="cls-1" d="M368.39011,138.4861c-1.648,0-2.432,1.233-2.432,2.946,0,2.4.944,3.233,2.369,3.233,1.328,0,2.35205-.897,2.35205-3.042,0-1.841-.416-3.137-2.289-3.137m-.159,7.299c-2.226,0-3.666-1.52-3.666-4.098,0-2.817,1.44-4.322,3.922-4.322,2.433,0,3.601,1.393,3.601,4.018,0,2.801-1.424,4.402-3.857,4.402"/><path class="cls-1" d="M374.19693,145.54491v-.944l1.456-.128v-5.699h-1.553v-.912a12.14537,12.14537,0,0,1,2.818-.432l.048,1.328a5.54334,5.54334,0,0,1,3.169-1.344,1.55337,1.55337,0,0,1,1.793,1.456,15.28488,15.28488,0,0,1,.064,1.921v3.682l1.553.128v.944h-2.866v-4.418a8.65481,8.65481,0,0,0-.12805-1.809c-.095-.432-.43195-.656-1.008-.656a4.45209,4.45209,0,0,0-2.577.96v4.851l1.457.128v.944Z"/><path class="cls-1" d="M27.641,136.653c.241-12.368,8.95-19.465,10.3-20.122a2.71843,2.71843,0,0,1,1.02-.118,49.73464,49.73464,0,0,1,8.265,1.354c3.371.711,7.192,1.516,10.986,1.941a32.7594,32.7594,0,0,0,3.596.225h.001c5.525,0,7.1-2.054,8.345-4.341.151-.279.3-.557.477-.822a9.24971,9.24971,0,0,0,1.233-4.754c.021-.327.049-.771.092-1.075.039-.015.079-.032.119-.048,1.619-.655,4.329-1.751,4.769-4.337a9.15522,9.15522,0,0,0-.023-3.192,4.83521,4.83521,0,0,1,.921-1.188,4.56264,4.56264,0,0,0,1.21-5.66c-.127-.291-.465-1.065-.328-1.371.082-.184.468-.496,1.286-.768.529-.176,1.1-.342,1.678-.51,2.858-.834,5.814-1.695,6.638-4.166a4.69527,4.69527,0,0,0-1.05-4.391c-4.324-5.77-6.977-10.668-7.67-14.165a3.19672,3.19672,0,0,1,.316-2.467c.908-2.115,2.279-5.31.865-17.099a33.24041,33.24041,0,0,0-5.745-14.442,46.82014,46.82014,0,0,1,6.21-.427,46.28728,46.28728,0,0,1,45.565,37.506,14.23438,14.23438,0,0,0-1.79,1.733,25.735,25.735,0,0,0-6.511,13.952,6.28069,6.28069,0,0,1-.804,2.78c-1.026,1.029-2.283,2.06-3.614,3.151a49.31317,49.31317,0,0,0-4.574,4.077c-4.142,4.386-.908,7.615.154,8.677a16.02086,16.02086,0,0,0,1.217,1.089,3.01188,3.01188,0,0,0-1.34,1.903,5.11516,5.11516,0,0,0,.976,5.595c-.123.154-.249.321-.372.504l-.179.326a3.91157,3.91157,0,0,0,.22,3.745c-.025.044-.05.086-.073.126a6.10713,6.10713,0,0,0-1.066,3.411c.01.162.004.352,0,.561-.035,1.881-.116,6.284,6.294,8.703a19.84573,19.84573,0,0,0,7.382,1.278c.542,0,1.07-.013,1.59-.025a14.07533,14.07533,0,0,1,4.784.394c.725.22,1.202,3.349.815,6.762a76.95495,76.95495,0,0,1-102.185-4.305M36.85,18.045c5.356-.505,11.875,1.986,15.806,3.806A65.65182,65.65182,0,0,0,16.674,94.16a42.01762,42.01762,0,0,1-6.778.584,28.77471,28.77471,0,0,1-4.737-.356A76.91407,76.91407,0,0,1,36.85,18.045M157.567,70.637c-2.167-1.573-5.738-3.282-11.297-3.56-.291-.015-.572-.014-.859-.022A65.74175,65.74175,0,0,0,57.472,19.78a52.3997,52.3997,0,0,0-14.885-5.406,77.07027,77.07027,0,0,1,114.98,56.263M61.837,22.462a61.7573,61.7573,0,0,1,79.499,44.669,30.09328,30.09328,0,0,0-11.013,2.788,50.36508,50.36508,0,0,0-58.105-38.4,41.32361,41.32361,0,0,0-10.381-9.057M34.938,85.687c-.146-1.504-.228-3.018-.228-4.534a46.45919,46.45919,0,0,1,21.531-39.18A61.54484,61.54484,0,0,1,54.898,52.31c-2.483,11.445-11.049,25.529-19.96,33.377M19.355,81.153a61.87357,61.87357,0,0,1,35.306-55.82,8.21272,8.21272,0,0,0,.153.923,56.28918,56.28918,0,0,1,1.458,11.036,50.34109,50.34109,0,0,0-25.01,51.255A35.56919,35.56919,0,0,1,20.584,93.32a61.944,61.944,0,0,1-1.229-12.167m56.228-11.23c.82,4.139,3.644,9.45,8.393,15.786a2.486,2.486,0,0,1,.427.749c-.471.559-2.712,1.212-3.935,1.568-.627.184-1.246.365-1.821.556a5.71062,5.71062,0,0,0-3.678,2.936,5.64449,5.64449,0,0,0,.319,4.601c.253.577.268.612-.313,1.169a7.81782,7.81782,0,0,0-2.18,3.391l-.142.583.171.551a4.94665,4.94665,0,0,1,.079,2.064c-.165.433-1.737,1.069-2.329,1.309-.238.096-.464.187-.666.275-1.813.786-1.937,2.735-2.035,4.303a6.28782,6.28782,0,0,1-.566,2.781c-.245.367-.457.75-.666,1.135-.765,1.405-1.227,2.253-4.833,2.253a28.89188,28.89188,0,0,1-3.15-.2c-3.603-.404-7.324-1.188-10.606-1.88a51.10094,51.10094,0,0,0-9.091-1.44,6.27567,6.27567,0,0,0-2.771.523c-2.892,1.405-10.601,8.693-12.26,19.908A77.029,77.029,0,0,1,6,98.54a35.9318,35.9318,0,0,0,3.896.204c4.168,0,14.873-.712,24.233-7.298C44.783,83.95,55.853,66.774,58.807,53.157a63.03155,63.03155,0,0,0-.102-27.826l-.006-.024c.113.051.238.112.376.184,6.323,3.307,16.303,13.4,17.64,24.564,1.286,10.723.17,13.324-.569,15.045a7.03833,7.03833,0,0,0-.563,4.823m54.589,60.445a15.22353,15.22353,0,0,0-4.55-.589c-.492,0-.988.012-1.492.024a17.53368,17.53368,0,0,1-7.462-.996c-3.771-1.424-3.739-3.185-3.707-4.887.005-.327.008-.622-.007-.874a4.186,4.186,0,0,1,.544-1.182c.497-.868,1.424-2.484.227-3.917a2.42845,2.42845,0,0,1-.189-.252c.151-.191.315-.369.475-.543a3.08435,3.08435,0,0,0,1.09-2.629,2.7434,2.7434,0,0,0-1.539-1.965c-.217-.12-.875-.481-.353-1.583l.086-.166c.253-.156.638-.349.853-.456.363-.183.683-.351.885-.483a2.28483,2.28483,0,0,0,1.069-1.843c.044-1.309-.914-2.031-1.929-2.794a16.31646,16.31646,0,0,1-1.768-1.477c-1.291-1.29-1.426-1.667-.072-3.101a46.04,46.04,0,0,1,4.201-3.729c1.349-1.107,2.743-2.25,3.911-3.422,1.305-1.31,1.588-2.991,1.915-4.94a21.894,21.894,0,0,1,5.606-12.014c2.286-2.671,7.748-5.526,16.226-5.526q.92253,0,1.878.048a20.02881,20.02881,0,0,1,12.005,4.453c.135,1.861.227,3.734.227,5.628a76.93032,76.93032,0,0,1-24.343,56.17c-.15-2.948-.998-6.109-3.787-6.955M81.152,0a81.1525,81.1525,0,1,0,81.15,81.153A81.244,81.244,0,0,0,81.152,0"/></svg>